<svg xmlns="http://www.w3.org/2000/svg" viewBox="0 0 128 128">
  <path fill-rule="evenodd" clip-rule="evenodd" fill="#4FAA41" d="M90.491 57.282c-.37-4.79-1.496-9.409-3.062-13.934-3.244-10.104-8.45-19.046-15.783-26.74-1.854-1.946-3.916-3.729-5.209-6.151-.818-1.532-1.597-3.085-2.394-4.629l-.505-1.273c-.085.292-.139.396-.142.501-.065 2.517-1.491 4.224-3.267 5.817-1.997 1.793-3.856 3.739-5.775 5.618l-5.901 7.763c-1.592 2.925-3.182 5.85-4.772 8.775l-3.19 8.617-.096.134c-1.756 5.768-2.622 11.698-3.048 17.688-.16 2.251.022 4.535.149 6.798.181 3.235.743 6.415 1.586 9.545 3.062 11.372 9.276 20.805 17.771 28.819 1.579 1.489 3.199 2.843 4.847 4.26.282-.965.507-1.93.763-2.895.256-.961.515-1.917.688-2.891-.174.964-.369 1.92-.562 2.881l-.826 2.891.892 1.439c1.365-.326 2.7-.605 3.99-1.039.082-.027.155-.094.224-.155l.201-.242c.429-.59 1.07-.781 1.494-.079.426.701 1.07.78 1.494.079l.13-.165c.18-.207.334-.439.463-.691l.837-.387c.327-.41.474-.834.463-.66l.514-.363c.025-.658.106-1.32.166-1.983l.514-.363c.025-.658.106-1.32.166-1.983l.69-.326c.336-.308.459-.681.326-.691-.215.148-.415.34-.618.525l.618-.526c.569-.537 1.43-.457 1.786.157.276.49.695.647 1.056.162.277-.37.732-.552 1.175-.578l.097-.139c.351-.263.702-.526 1.053-.789l.34-.1c.799-.616 1.599-1.232 2.398-1.847.45-.35.897-.709 1.346-1.063l1.385-1.014c.981-.757 2.026-1.304 2.912-2.172 1.417-1.391 3.047-2.583 4.293-4.175 3.953-5.045 7.578-10.312 9.024-16.522.172-.736.229-1.496.34-2.246.117-.813.28-1.618.317-2.434.053-1.194-.125-2.388-.235-3.579-.058-.63-.155-1.258-.184-1.888-.274-5.947-1.357-11.694-3.171-17.291l-1.112.413c-2.844 1.399-5.565 2.949-8.129 4.81-1.623 1.178-3.296 2.215-5.148 2.982-.359.15-.727.309-1.03.572-.342.294-.621.651-.917.989-.333.373-.537.857-.851 1.25-.467.582-.69 1.259-.813 1.993-.071.423-.072.848-.093 1.272-.016.319.055.628.129.935.072.299.218.562.322.845.117.325.232.651.337.981.111.345.222.689.304 1.045.204.884.474 1.748.572 2.648.106.97.095 1.956.088 2.935-.004.517-.101 1.033-.196 1.545-.271 1.454-.925 2.669-1.912 3.723-.73.778-1.467 1.557-2.368 2.121-.393.247-.46.388-.46.493v.296c.768 1.75 1.539 3.499 2.314 5.244.777 1.756 1.551 3.512 2.327 5.268.076.175.152.35.236.52.059.12.146.227.277.269.313.103.627.197.949.269.44.097.887.154 1.335.198.396.039.798.044 1.196.078.524.046 1.045.138 1.571.138.218 0 .438-.039.655-.076.2-.034.398-.103.494-.299.104-.21.241-.411.25-.637.014-.38-.136-.674-.396-.91-.155-.145-.329-.267-.495-.4-.312-.25-.623-.501-.933-.754-.66-.535-1.325-1.066-1.97-1.617-1.646-1.399-3.25-2.848-4.769-4.372-.583-.585-1.102-1.231-1.613-1.877-.37-.465-.695-.967-.992-1.482-.258-.444-.465-.916-.681-1.382-.204-.441-.407-.882-.547-1.343-.121-.393-.204-.805-.251-1.215-.111-.967-.032-1.93.015-2.892.048-.995.27-1.984.426-2.969.09-.567.262-1.121.398-1.682.15-.62.231-1.266.5-1.855.451-.984 1.128-1.849 1.733-2.749.462-.688.995-1.32 1.521-1.957.283-.343.575-.673.896-1.019.319-.343.647-.676 1.01-.962.374-.293.787-.528 1.208-.72.983-.448 1.999-.796 3.027-1.081 1.069-.297 2.153-.508 3.245-.661 1.117-.157 2.241-.284 3.36-.297 1.344-.015 2.689.156 4.034.247.206.013.411.005.617.008-.463-2.326-1.249-4.479-1.969-6.656zm-40.036-7.88c-.069 1.035-.131 2.071-.198 3.182.177-.706.241-1.356.242-2.115.04-.831-.055-1.688-.044-2.419.012-.729.062-1.415.112-2.143.05-.728.109-1.415.128-2.144.02-.728-.054-1.409-.072-2.137-.02-.729-.076-1.479-.066-2.208.009-.724.114-1.389.214-2.08.1-.691.319-1.343.396-2.042.064-.582.07-1.172.079-1.758.012-.762-.002-1.524.01-2.286.004-.263.053-.526.092-.787.046-.298.108-.542.138-.85.032-.319.076-.637.052-.956-.027-.348-.098-.693-.144-1.04-.05-.374-.107-.747-.135-1.123-.028-.376.007-.748.038-1.123l.07-.841c.014-.165.004-.332.004-.499 0-2.776-2.254-5.028-5.03-5.028s-5.029 2.253-5.029 5.029c0 1.376.559 2.621 1.46 3.528l-.877.877c-5.145 5.146-8.803 11.323-10.894 18.246-2.982-5.458-4.481-11.653-4.481-17.894 0-1.311.078-2.655.233-3.966-6.98 9.09-10.507 20.651-9.228 32.083 1.454 12.982 8.453 24.544 18.592 32.289 8.679 6.65 19.484 10.139 30.345 10.139 6.335 0 12.679-1.201 18.607-3.614-20.231-1.842-36.82-16.826-40.677-36.852z"></path>
</svg> 